<?xml version="1.0" encoding="UTF-8" standalone="no"?>
<svg width="374px" height="259px" viewBox="0 0 374 259" version="1.1" xmlns="http://www.w3.org/2000/svg" xmlns:xlink="http://www.w3.org/1999/xlink">
    <!-- Generator: Sketch 40.3 (33839) - http://www.bohemiancoding.com/sketch -->
    <title>web</title>
    <desc>Created with Sketch.</desc>
    <defs>
        <path d="M374,258.387674 L374,2.99770155 C374,1.3421167 372.664274,0 371.003177,0 L2.99682323,0 C1.34172346,0 0,1.35009899 0,2.99770155 L0,258.387674 L374,258.387674 Z" id="path-1"></path>
        <mask id="mask-2" maskContentUnits="userSpaceOnUse" maskUnits="objectBoundingBox" x="0" y="0" width="374" height="258.387674" fill="white">
            <use xlink:href="#path-1"></use>
        </mask>
        <ellipse id="path-3" cx="13.5" cy="14.5" rx="2.5" ry="2.5"></ellipse>
        <mask id="mask-4" maskContentUnits="userSpaceOnUse" maskUnits="objectBoundingBox" x="-1" y="-1" width="7" height="7">
            <rect x="10" y="11" width="7" height="7" fill="white"></rect>
            <use xlink:href="#path-3" fill="black"></use>
        </mask>
        <ellipse id="path-5" cx="26.5" cy="14.5" rx="2.5" ry="2.5"></ellipse>
        <mask id="mask-6" maskContentUnits="userSpaceOnUse" maskUnits="objectBoundingBox" x="-1" y="-1" width="7" height="7">
            <rect x="23" y="11" width="7" height="7" fill="white"></rect>
            <use xlink:href="#path-5" fill="black"></use>
        </mask>
        <ellipse id="path-7" cx="39.5" cy="14.5" rx="2.5" ry="2.5"></ellipse>
        <mask id="mask-8" maskContentUnits="userSpaceOnUse" maskUnits="objectBoundingBox" x="-1" y="-1" width="7" height="7">
            <rect x="36" y="11" width="7" height="7" fill="white"></rect>
            <use xlink:href="#path-7" fill="black"></use>
        </mask>
    </defs>
    <g id="Studies" stroke="none" stroke-width="1" fill="none" fill-rule="evenodd">
        <g id="Desktop-HD" transform="translate(-942.000000, -84.000000)" stroke-width="2" stroke="#fff">
            <g id="Web" transform="translate(942.000000, 84.000000)">
                <g id="web">
                    <use id="Nav-bar" mask="url(#mask-2)" xlink:href="#path-1"></use>
                    <use id="circle3" mask="url(#mask-4)" xlink:href="#path-3"></use>
                    <use id="circle2" mask="url(#mask-6)" xlink:href="#path-5"></use>
                    <use id="circle" mask="url(#mask-8)" xlink:href="#path-7"></use>
                </g>
            </g>
        </g>
    </g>
</svg>
