<svg xmlns="http://www.w3.org/2000/svg" width="310" height="628" viewBox="0 0 310 628" xmlns:xlink="http://www.w3.org/1999/xlink">
  <defs>
    <path id="a" d="M2,593.34037 C2,607.620629 11.7563879,614.537588 15.5193966,616.306918 C23.9278017,620.259848 34.4663362,621.246076 53.1099138,622.573074 C68.2938448,623.652846 112.353888,628 153.790509,628 L155.87975,627.958573 C198.525862,627.958573 240.81981,624.445303 255.956259,622.821635 C272.722948,621.022905 286.56681,618.879396 294.975216,614.926467 C298.736905,613.157136 308,606.952453 308,593.923019 L308,581.227674 L308,44.0140955 L308,29.3142215 C308,20.9058936 300.430457,14.1239062 296.667448,12.3559123 C288.259043,8.40298253 278.171595,5.4162354 259.528017,4.09057404 C244.344086,3.01080147 202.592233,0.0400905655 159.946121,0.0400905655 L150.713362,0 C109.275422,0 65.6559138,3.01080147 50.4719828,4.09057404 C31.8284052,5.4162354 23.5426638,7.4314545 15.1342586,11.3843843 C11.372569,13.1537145 2,19.29158 2,29.3142226 C2,35.9959824 2,44.0140955 2,44.0140955 L2,578.554969 L2,593.34037 Z"/>
    <mask id="b" width="306" height="628" x="0" y="0" fill="white">
      <use xlink:href="#a"/>
    </mask>
  </defs>
  <g fill="none" fill-rule="evenodd">
    <use stroke="#FFFFFF" stroke-width="2" mask="url(#b)" xlink:href="#a"/>
    <path stroke="#FFFFFF" d="M155.5 22C151.358696 22 148 25.3573913 148 29.5 148 33.6413043 151.358696 37 155.5 37 159.642609 37 163 33.6413043 163 29.5 163 25.3573913 159.642609 22 155.5 22zM56 32.9993142C56 30.7911881 54.209119 29 52 29 49.790881 29 48 30.7911881 48 32.9993142 48 35.2088119 49.790881 37 52 37 54.209119 37 56 35.2088119 56 32.9993142"/>
    <polygon fill="#FFFFFF" points="0 119 3 119 3 217 0 217"/>
    <polygon fill="#FFFFFF" points="307 80 310 80 310 121 307 121"/>
  </g>
</svg>
