<svg xmlns="http://www.w3.org/2000/svg" width="307" height="628" viewBox="0 0 307 628" xmlns:xlink="http://www.w3.org/1999/xlink">
  <defs>
    <rect id="a" width="42" height="6" x="134" y="36" rx="3"/>
    <mask id="c" width="42" height="6" x="0" y="0" fill="white">
      <use xlink:href="#a"/>
    </mask>
    <path id="b" d="M307,161.33899 L307,597.644003 C307,614.409701 293.473177,628 276.786994,628 L31.2130056,628 C14.5184408,628 1,614.409157 1,597.644003 L1,30.3559966 C1,13.5902991 14.5268234,0 31.2130056,0 L276.786994,0 C293.481559,0 307,13.5908426 307,30.3559966 L307,121.261937 C306.645523,121.461832 306.405789,121.843967 306.405789,122.278985 L306.405789,160.321015 C306.405789,160.758693 306.645372,161.139985 307,161.33899 L307,161.33899 Z"/>
    <mask id="d" width="306" height="628" x="0" y="0" fill="white">
      <use xlink:href="#b"/>
    </mask>
  </defs>
  <g fill="none" fill-rule="evenodd">
    <use stroke="#FFFFFF" stroke-width="2" mask="url(#c)" xlink:href="#a"/>
    <use stroke="#FFFFFF" stroke-width="2" mask="url(#d)" xlink:href="#b"/>
    <polygon fill="#FFFFFF" points=".002 120.5 0 160.018 1 160.019 1.002 120.5"/>
    <polygon fill="#FFFFFF" points="0 73.235 0 97.765 1 97.765 1 73.235"/>
    <polygon fill="#FFFFFF" points=".002 168.5 0 208.018 1 208.019 1.002 168.5"/>
    <ellipse cx="155" cy="21" stroke="#FFFFFF" rx="3" ry="3"/>
    <circle cx="154" cy="588" r="21" stroke="#FFFFFF"/>
  </g>
</svg>
