<svg xmlns="http://www.w3.org/2000/svg" width="18" height="18" viewBox="0 0 18 18">
  <path fill="#666666" fill-rule="evenodd" d="M16.4529548,10.2942872 L14.5179848,8.99987588 L16.4529548,7.70552663 L16.4529548,10.2942872 Z M9.77346053,15.7809826 L9.77346053,12.1733494 L13.1267674,9.93068781 L15.8336775,11.7410515 L9.77346053,15.7809826 Z M9.00009309,10.8297259 L6.26432593,8.99987588 L9.00009309,7.17002586 L11.735612,8.99987588 L9.00009309,10.8297259 Z M8.22647741,15.7809826 L2.16619836,11.7410515 L4.87335675,9.93068781 L8.22647741,12.1733494 L8.22647741,15.7809826 Z M1.54698312,7.70552663 L3.48213935,8.99987588 L1.54698312,10.2942872 L1.54698312,7.70552663 Z M8.22647741,2.21876918 L8.22647741,5.82640234 L4.87335675,8.06956042 L2.16619836,6.25863817 L8.22647741,2.21876918 Z M9.77346053,2.21876918 L15.8336775,6.25863817 L13.1267674,8.06956042 L9.77346053,5.82640234 L9.77346053,2.21876918 Z M17.9930495,6.15686261 C17.991436,6.14550595 17.9885813,6.13464575 17.9867196,6.12328909 C17.982872,6.10144458 17.9789003,6.07966213 17.9731909,6.05837614 C17.9698398,6.04559214 17.9651234,6.0333046 17.9611517,6.02101707 C17.9549459,6.00202724 17.9488021,5.98309947 17.941231,5.96466816 C17.9359561,5.95188416 17.9298744,5.93910016 17.9239789,5.92681262 C17.9158493,5.90925013 17.9074094,5.89218411 17.8976663,5.87567661 C17.8905917,5.86332701 17.8830206,5.85147388 17.8756977,5.83968281 C17.865272,5.82354766 17.854598,5.80790898 17.8429311,5.79276676 C17.8344912,5.7814101 17.8254928,5.77005344 17.8164943,5.75913118 C17.8041448,5.7449819 17.7913608,5.73077056 17.7778942,5.71749009 C17.7677788,5.70712636 17.7577254,5.69670057 17.7471134,5.68720565 C17.7329021,5.67442165 17.7182564,5.66207206 17.7033005,5.65028099 C17.6917577,5.64128254 17.680339,5.63228409 17.6682997,5.62378211 C17.6637695,5.62092743 17.6597978,5.61714187 17.6555158,5.61428719 L9.42897628,0.129950009 C9.16913922,-0.0433166695 8.83079872,-0.0433166695 8.5708996,0.129950009 L0.344422188,5.61428719 C0.340140182,5.61714187 0.336106409,5.62092743 0.331638229,5.62378211 C0.319536909,5.63228409 0.308180286,5.64128254 0.296823662,5.65028099 C0.281681497,5.66207206 0.266973739,5.67442165 0.253072735,5.68720565 C0.242150518,5.69670057 0.23222123,5.70712636 0.22204371,5.71749009 C0.208577112,5.73077056 0.195793154,5.7449819 0.183691834,5.75913118 C0.174445184,5.77005344 0.165446766,5.7814101 0.156944813,5.79276676 C0.14558819,5.80790898 0.134665973,5.82354766 0.124488452,5.83968281 C0.116669137,5.85147388 0.109346287,5.86332701 0.102271669,5.87567661 C0.0927767875,5.89218411 0.0842748344,5.90925013 0.0759590555,5.92681262 C0.0700635405,5.93910016 0.0639197934,5.95188416 0.0587069171,5.96466816 C0.0511358347,5.98309947 0.0449920876,6.00202724 0.0387862824,6.02101707 C0.034752509,6.0333046 0.0302843293,6.04559214 0.0267470204,6.05837614 C0.0210376796,6.07966213 0.0172521384,6.10144458 0.013218365,6.12328909 C0.0113566235,6.13464575 0.0085019531,6.14550595 0.00707461791,6.15686261 C0.00254438013,6.19000172 0,6.2236373 0,6.25770729 L0,11.7420445 C0,11.7761145 0.00254438013,11.80975 0.00707461791,11.8433856 C0.0085019531,11.8543079 0.0113566235,11.8656025 0.013218365,11.8764627 C0.0172521384,11.8983072 0.0210376796,11.9200276 0.0267470204,11.9413756 C0.0302843293,11.9541596 0.034752509,11.9664472 0.0387862824,11.9787968 C0.0449920876,11.9976625 0.0511358347,12.0166523 0.0587069171,12.0355801 C0.0639197934,12.0484261 0.0700635405,12.0607137 0.0759590555,12.0730012 C0.0842748344,12.0904396 0.0927767875,12.1075056 0.102271669,12.1245716 C0.109346287,12.1364868 0.116669137,12.1482158 0.124488452,12.160069 C0.134665973,12.1762041 0.14558819,12.1918428 0.156944813,12.206985 C0.165446766,12.2188381 0.174445184,12.2296983 0.183691834,12.2405585 C0.195793154,12.2547699 0.208577112,12.2689812 0.22204371,12.2822617 C0.23222123,12.2926254 0.242150518,12.3030512 0.253072735,12.3124841 C0.266973739,12.3253922 0.281681497,12.3376797 0.296823662,12.3494708 C0.308180286,12.3585313 0.319536909,12.3674677 0.331638229,12.3759697 C0.336106409,12.3788243 0.340140182,12.3826099 0.344422188,12.3854025 L8.5708996,17.8698018 C8.70084916,17.9564351 8.85047112,18 9.00009309,18 C9.14946682,18 9.29902672,17.9564351 9.42897628,17.8698018 L17.6555158,12.3854025 C17.6597978,12.3826099 17.6637695,12.3788243 17.6682997,12.3759697 C17.680339,12.3674677 17.6917577,12.3585313 17.7033005,12.3494708 C17.7182564,12.3376797 17.7329021,12.3253922 17.7471134,12.3124841 C17.7577254,12.3030512 17.7677788,12.2926254 17.7778942,12.2822617 C17.7913608,12.2689812 17.8041448,12.2547699 17.8164943,12.2405585 C17.8254928,12.2296983 17.8344912,12.2188381 17.8429311,12.206985 C17.854598,12.1918428 17.865272,12.1762041 17.8756977,12.160069 C17.8830206,12.1482158 17.8905917,12.1364868 17.8976663,12.1245716 C17.9074094,12.1075056 17.9158493,12.0904396 17.9239789,12.0730012 C17.9298744,12.0607137 17.9359561,12.0484261 17.941231,12.0355801 C17.9488021,12.0166523 17.9549459,11.9976625 17.9611517,11.9787968 C17.9651234,11.9664472 17.9698398,11.9541596 17.9731909,11.9413756 C17.9789003,11.9200276 17.982872,11.8983072 17.9867196,11.8764627 C17.9885813,11.8656025 17.991436,11.8543079 17.9930495,11.8433856 C17.9973315,11.80975 18,11.7761145 18,11.7420445 L18,6.25770729 C18,6.2236373 17.9973315,6.19000172 17.9930495,6.15686261 L17.9930495,6.15686261 Z"/>
</svg>
