<svg xmlns="http://www.w3.org/2000/svg" width="19" height="19" viewBox="0 0 19 19">
  <path fill="#666666" d="M9.4627451,0 C4.24705882,0 0,4.399638 0,9.72551558 C0,14.047967 2.68235294,17.6757386 6.48235294,18.9879114 C6.92941176,19.065098 7.15294118,18.7563515 7.15294118,18.5247916 L7.15294118,16.9038723 C4.54509804,17.5213654 3.94901961,15.5916996 3.94901961,15.5916996 C3.50196078,14.4339001 2.90588235,14.2023402 2.90588235,14.2023402 C2.01176471,13.5848472 2.98039216,13.5848472 2.98039216,13.5848472 C3.94901961,13.6620338 4.39607843,14.5882734 4.39607843,14.5882734 C5.21568627,16.0548194 6.63137255,15.6688862 7.15294118,15.3601397 C7.22745098,14.7426466 7.45098039,14.2795268 7.74901961,14.047967 C5.6627451,13.8164071 3.42745098,12.9673541 3.42745098,9.26239579 C3.42745098,8.18178295 3.8,7.33273 4.39607843,6.63805032 C4.32156863,6.40649042 3.94901961,5.40306421 4.47058824,4.09089147 C4.47058824,4.09089147 5.29019608,3.85933158 7.07843137,5.09431769 C7.82352941,4.86275779 8.64313725,4.78557116 9.4627451,4.78557116 C10.2823529,4.78557116 11.1019608,4.86275779 11.8470588,5.09431769 C13.6352941,3.85933158 14.454902,4.09089147 14.454902,4.09089147 C14.9764706,5.40306421 14.6784314,6.40649042 14.5294118,6.63805032 C15.1254902,7.33273 15.4980392,8.18178295 15.4980392,9.26239579 C15.4980392,13.0445407 13.2627451,13.8164071 11.1764706,14.047967 C11.5490196,14.3567135 11.8470588,14.9742065 11.8470588,15.8232595 L11.8470588,18.5247916 C11.8470588,18.7563515 11.9960784,19.065098 12.5176471,18.9879114 C16.2431373,17.6757386 19,14.047967 19,9.72551558 C18.8509804,4.399638 14.6784314,0 9.4627451,0"/>
</svg>
