<svg xmlns="http://www.w3.org/2000/svg" width="18" height="18" viewBox="0 0 18 18">
  <path fill="#666666" d="M15.3877636,15.3243243 L12.7010112,15.3243243 L12.7010112,11.1891892 C12.7010112,10.2162162 12.7010112,8.91891892 11.3169267,8.91891892 C9.93284211,8.91891892 9.6885919,9.97297297 9.6885919,11.1081081 L9.6885919,15.3243243 L7.00183952,15.3243243 L7.00183952,6.81081081 L9.60717516,6.81081081 L9.60717516,7.94594595 L9.60717516,7.94594595 C9.93284211,7.2972973 10.8284262,6.56756757 12.1310941,6.56756757 C14.8178464,6.56756757 15.3063469,8.35135135 15.3063469,10.6216216 L15.3877636,15.3243243 L15.3877636,15.3243243 Z M3.98942019,5.59459459 C3.09383607,5.59459459 2.44250216,4.86486486 2.44250216,4.05405405 C2.44250216,3.16216216 3.17525281,2.51351351 3.98942019,2.51351351 C4.88500432,2.51351351 5.53633823,3.24324324 5.53633823,4.05405405 C5.53633823,4.94594595 4.88500432,5.59459459 3.98942019,5.59459459 Z M2.68675237,6.81081081 L5.37350475,6.81081081 L5.37350475,15.4054054 L2.68675237,15.4054054 L2.68675237,6.81081081 Z M16.6904314,0 L1.30266782,0 C0.56991717,0 -9.23705556e-14,0.567567568 -9.23705556e-14,1.2972973 L-9.23705556e-14,16.7027027 C-9.23705556e-14,17.4324324 0.56991717,18 1.30266782,18 L16.6904314,18 C17.4231821,18 17.9930992,17.4324324 17.9930992,16.7027027 L17.9930992,1.2972973 C18.074516,0.648648649 17.4231821,0 16.6904314,0 Z"/>
</svg>
