<svg xmlns="http://www.w3.org/2000/svg" width="22" height="18" viewBox="0 0 22 18">
  <path fill="#666666" fill-rule="evenodd" d="M21.6,2.128 C20.805,2.481 19.95,2.718 19.055,2.826 C19.97,2.276 20.672,1.409 21.003,0.374 C20.147,0.882 19.199,1.251 18.189,1.449 C17.379,0.587 16.229,0.049 14.954,0.049 C12.506,0.049 10.522,2.033 10.522,4.479 C10.522,4.829 10.562,5.166 10.637,5.489 C6.954,5.306 3.687,3.541 1.503,0.859 C1.121,1.515 0.903,2.276 0.903,3.089 C0.903,4.626 1.685,5.982 2.873,6.777 C2.148,6.754 1.463,6.554 0.867,6.222 L0.867,6.278 C0.867,8.424 2.394,10.215 4.421,10.622 C4.051,10.724 3.658,10.778 3.254,10.778 C2.968,10.778 2.691,10.75 2.42,10.698 C2.985,12.458 4.622,13.74 6.56,13.776 C5.044,14.964 3.133,15.673 1.057,15.673 C0.699,15.673 0.347,15.653 0,15.611 C1.96,16.868 4.29,17.601 6.793,17.601 C14.943,17.601 19.403,10.849 19.403,4.993 C19.403,4.801 19.397,4.61 19.389,4.42 C20.254,3.795 21.005,3.015 21.599,2.126"/>
</svg>
