<svg xmlns="http://www.w3.org/2000/svg" width="18" height="18" viewBox="0 0 18 18">
  <g fill="#666666" fill-rule="evenodd">
    <path d="M9,1.624 C11.402,1.624 11.687,1.634 12.636,1.676 C13.513,1.716 13.989,1.863 14.306,1.986 C14.726,2.149 15.026,2.344 15.341,2.659 C15.657,2.973 15.851,3.273 16.015,3.693 C16.138,4.01 16.285,4.486 16.325,5.363 C16.368,6.313 16.377,6.597 16.377,8.999 C16.377,11.401 16.367,11.686 16.325,12.635 C16.285,13.512 16.138,13.988 16.015,14.305 C15.852,14.725 15.657,15.025 15.342,15.34 C15.028,15.656 14.728,15.85 14.308,16.014 C13.991,16.137 13.515,16.284 12.638,16.324 C11.688,16.367 11.405,16.376 9.002,16.376 C6.6,16.376 6.315,16.366 5.366,16.324 C4.489,16.284 4.013,16.137 3.696,16.014 C3.276,15.851 2.976,15.656 2.661,15.341 C2.345,15.027 2.151,14.727 1.987,14.307 C1.864,13.99 1.717,13.514 1.677,12.637 C1.634,11.687 1.625,11.403 1.625,9.001 C1.625,6.599 1.635,6.314 1.677,5.365 C1.717,4.488 1.864,4.012 1.987,3.695 C2.15,3.275 2.345,2.975 2.66,2.66 C2.974,2.344 3.274,2.15 3.694,1.986 C4.011,1.863 4.487,1.716 5.364,1.676 C6.314,1.633 6.598,1.624 9,1.624 M9,0.004 C6.556,0.004 6.25,0.014 5.29,0.057 C4.333,0.1 3.68,0.253 3.107,0.475 C2.515,0.705 2.013,1.013 1.513,1.513 C1.013,2.013 0.705,2.515 0.475,3.107 C0.253,3.679 0.1,4.332 0.057,5.29 C0.013,6.25 0.003,6.556 0.003,9 C0.003,11.444 0.013,11.75 0.057,12.71 C0.101,13.667 0.253,14.32 0.475,14.893 C0.705,15.485 1.013,15.987 1.513,16.487 C2.013,16.987 2.515,17.295 3.107,17.525 C3.679,17.747 4.333,17.899 5.29,17.943 C6.25,17.987 6.556,17.997 9,17.997 C11.444,17.997 11.75,17.987 12.71,17.943 C13.667,17.899 14.32,17.747 14.893,17.525 C15.485,17.295 15.987,16.987 16.487,16.487 C16.987,15.987 17.295,15.485 17.525,14.894 C17.747,14.321 17.899,13.667 17.943,12.71 C17.987,11.75 17.997,11.443 17.997,9 C17.997,6.556 17.987,6.25 17.943,5.29 C17.899,4.333 17.747,3.68 17.525,3.107 C17.295,2.515 16.987,2.013 16.487,1.513 C15.987,1.013 15.485,0.705 14.894,0.475 C14.32,0.253 13.666,0.1 12.71,0.057 C11.75,0.013 11.443,0.003 9,0.003"/>
    <path d="M9,4.38 C6.448,4.38 4.38,6.448 4.38,9 C4.38,11.552 6.448,13.62 9,13.62 C11.552,13.62 13.62,11.552 13.62,9 C13.62,6.448 11.552,4.38 9,4.38 Z M9,12 C7.344,12 6,10.656 6,9 C6,7.344 7.344,6 9,6 C10.656,6 12,7.344 12,9 C12,10.656 10.656,12 9,12 Z M14.882,4.197 C14.882,4.794 14.399,5.277 13.802,5.277 C13.206,5.277 12.722,4.794 12.722,4.197 C12.722,3.601 13.206,3.117 13.802,3.117 C14.399,3.117 14.882,3.601 14.882,4.197 L14.882,4.197 Z"/>
  </g>
</svg>
