<svg xmlns="http://www.w3.org/2000/svg" width="24" height="24" viewBox="0 0 24 24" xmlns:xlink="http://www.w3.org/1999/xlink">
  <defs>
    <path id="a" d="M12,19.7997802 C13.8383991,19.7997802 15.6237686,20.2502747 17.1038707,19.7997802 C20.0702343,18.8969164 22,16.1422462 22,13.2910957 C22,11.5905248 21.2911245,10.018075 20.089561,8.74103955 C19.8455736,8.48172692 20.1664969,7.58695812 20.089561,6.53567077 C20.0024288,5.34505662 19.5344756,4 19.5344756,4 C19.5344756,4 17.9653172,4.24326935 17.1038707,4.64650059 C16.2424242,5.04973183 15.3110342,5.98432777 15.0685827,5.92390187 C14.1016655,5.68291828 13.0704755,5.55275846 12,5.55275846 C10.874562,5.55275846 9.79254724,5.69662725 8.78299286,5.96189489 C8.51948213,6.03113422 8.72820545,5.66274782 7.0633286,4.91840688 C5.39845175,4.17406594 4.39479759,4 4.39479759,4 C4.39479759,4 3.78125619,5.5968728 3.67243726,6.53567077 C3.56361834,7.47446874 4.0378864,8.60081192 3.83594876,8.82127672 C2.67963262,10.0836813 2,11.6259706 2,13.2910957 C2,16.2919583 4.00328239,18.9517965 7.23008404,19.7997802 C8.59882573,20.1594771 10.355069,19.7997802 12,19.7997802 Z"/>
    <mask id="b" width="20" height="16" x="0" y="0" fill="white">
      <use xlink:href="#a"/>
    </mask>
  </defs>
  <g fill="none" fill-rule="evenodd">
    <use stroke="#FFFFFF" stroke-width="2" mask="url(#b)" xlink:href="#a"/>
    <ellipse cx="8.5" cy="15" fill="#FFFFFF" rx="1.5" ry="2"/>
    <ellipse cx="15.5" cy="15" fill="#FFFFFF" rx="1.5" ry="2"/>
  </g>
</svg>
