<svg xmlns="http://www.w3.org/2000/svg" width="18" height="18" viewBox="0 0 18 18">
  <path fill="#666666" d="M14.9268293,4.09756098 C14.7804878,4.31707317 13.4634146,6 10.6097561,7.17073171 C10.7560976,7.53658537 10.9756098,7.90243902 11.1219512,8.26829268 C11.195122,8.41463415 11.2682927,8.56097561 11.2682927,8.63414634 C13.8292683,8.34146341 16.3902439,8.85365854 16.6097561,8.85365854 C16.6829268,7.02439024 16.0243902,5.41463415 14.9268293,4.09756098 Z M7.17073171,1.46341463 C7.3902439,1.75609756 8.7804878,3.65853659 10.0243902,6 C12.7317073,4.97560976 13.902439,3.43902439 14.0487805,3.2195122 C12.6585366,1.97560976 10.902439,1.24390244 8.92682927,1.24390244 C8.34146341,1.24390244 7.75609756,1.31707317 7.17073171,1.46341463 Z M1.46341463,7.3902439 C1.82926829,7.3902439 4.97560976,7.3902439 8.56097561,6.43902439 C7.31707317,4.17073171 5.92682927,2.26829268 5.70731707,1.97560976 C3.51219512,3 1.90243902,4.97560976 1.46341463,7.3902439 Z M3.2195122,14.1219512 C3.36585366,13.8292683 5.48780488,10.3170732 9.51219512,9 C9.58536585,9 9.73170732,8.92682927 9.80487805,8.92682927 C9.58536585,8.48780488 9.36585366,8.04878049 9.14634146,7.6097561 C5.26829268,8.7804878 1.53658537,8.70731707 1.24390244,8.70731707 L1.24390244,8.92682927 C1.24390244,10.902439 2.04878049,12.7317073 3.2195122,14.1219512 Z M12,16.0243902 C11.8536585,15.3658537 11.4146341,13.0243902 10.3902439,10.1707317 C10.3902439,10.1707317 10.3902439,10.1707317 10.3170732,10.1707317 C6,11.7073171 4.3902439,14.7073171 4.24390244,15 C5.56097561,16.0243902 7.17073171,16.6097561 9,16.6097561 C10.0243902,16.6829268 11.0487805,16.4634146 12,16.0243902 Z M16.6097561,10.1707317 C16.3170732,10.097561 14.195122,9.43902439 11.7804878,9.80487805 C12.804878,12.5853659 13.1707317,14.8536585 13.2439024,15.2926829 C15,14.195122 16.2439024,12.2926829 16.6097561,10.1707317 Z M9,18 C4.02439024,18 0,13.9756098 0,9 C0,4.02439024 4.02439024,0 9,0 C13.9756098,0 18,4.02439024 18,9 C18,13.902439 13.9756098,18 9,18 Z"/>
</svg>
