<svg xmlns="http://www.w3.org/2000/svg" width="18" height="18" viewBox="0 0 18 18">
  <path fill="#666666" fill-rule="evenodd" d="M17.965,16.993 L17.965,1.03 C17.965,0.483 17.521,0.04 16.975,0.04 L1.013,0.04 C0.466,0.04 0.023,0.483 0.023,1.03 L0.023,16.992 C0.023,17.539 0.466,17.982 1.013,17.982 L16.975,17.982 C17.521,17.983 17.965,17.539 17.965,16.993 Z M12.402,11.033 L14.735,11.033 L15.085,8.326 L12.4,8.326 L12.4,6.598 C12.4,5.814 12.618,5.278 13.742,5.278 L15.176,5.278 L15.176,2.86 C14.928,2.826 14.076,2.752 13.086,2.752 C11.019,2.752 9.604,4.014 9.604,6.332 L9.604,8.328 L7.268,8.328 L7.268,11.036 L9.606,11.036 L9.606,17.986 L12.402,17.986 L12.402,11.033 Z"/>
</svg>
